PathFileType	4	(X/Y/Z)	C:\Users\WrightLab\Desktop\Jo\P1.2Trial11.trc
DataRate	CameraRate	NumFrames	NumMarkers	Units	OrigDataRate	OrigDataStartFrame	OrigNumFrames
100.00	100.00	       6	19	mm	100.00	408	       814
Frame#	Time	Headset_Front			Headset_Back			Headset_Left			Headset_Right			Left_Shoulder			Right_Shoulder			Sternum			C7			Left Elbow			Right Elbow			Left Wrist			Right Wrist			Left ASIS			Right ASIS			S2			Left Knee			Right Knee			Left Ankle			Right Ankle			
		X1	Y1	Z1	X2	Y2	Z2	X3	Y3	Z3	X4	Y4	Z4	X5	Y5	Z5	X6	Y6	Z6	X7	Y7	Z7	X8	Y8	Z8	X9	Y9	Z9	X10	Y10	Z10	X11	Y11	Z11	X12	Y12	Z12	X13	Y13	Z13	X14	Y14	Z14	X15	Y15	Z15	X16	Y16	Z16	X17	Y17	Z17	X18	Y18	Z18	X19	Y19	Z19	

408	4.070	-659.59766	1372.03479	273.94006	-835.25275	1513.75610	481.85675	-853.26654	1432.13367	333.07913	-639.73376	1429.17993	408.06448	-931.50684	1216.01306	319.77158	-611.97485	1276.64429	583.10382	-700.96857	1183.79053	368.88846	-859.36060	1300.01758	546.78925	-884.39111	948.72375	212.77699	-535.14691	1039.80371	669.04144	-691.12170	868.57880	96.91631	-419.67130	812.17731	583.53210	-796.82074	847.90277	298.29922	-570.63177	876.64783	478.02707	-864.85016	897.90857	584.74835	-742.69110	455.50134	283.46075	-508.67493	442.36545	492.55823	-803.50922	95.31960	331.42081	-676.71136	184.73207	679.46490	
409	4.080	-657.09344	1372.16321	267.41855	-832.47546	1514.42395	475.51093	-849.87457	1431.64746	327.04312	-633.18280	1430.80261	406.83823	-926.38037	1217.37573	311.38446	-611.51398	1276.40808	579.39410	-696.86786	1183.44666	364.79309	-857.55426	1300.77893	539.42322	-873.74481	953.87488	199.49718	-534.50177	1039.45398	665.86499	-680.93524	875.61914	83.66391	-416.68323	812.22528	584.98334				-568.04181	877.07202	473.83438	-864.02795	898.34247	579.16559	-744.06061	453.63037	279.96774	-499.94534	446.46506	482.94177	-803.31970	93.95832	333.43936	-669.49438	189.35339	671.45160	
410	4.090	-653.59125	1371.48987	262.65839	-829.78210	1514.53845	469.50748	-847.67700	1432.00500	320.70053	-630.24066	1431.06665	400.90527	-920.45093	1218.81775	303.15689	-609.57269	1276.59790	575.38605	-692.53345	1184.15295	359.51605	-855.15546	1300.84277	533.07214	-863.71289	959.07629	187.05727	-534.61011	1039.99426	662.15692	-670.78033	884.07678	68.92117	-413.16553	812.92395	586.19562	-769.40100	862.57330	258.17508	-564.97754	876.54883	470.52090	-861.70911	898.37000	573.95099	-745.75415	452.38223	276.35175	-492.03885	449.51382	473.28833	-803.13428	92.53155	335.12415	-661.73950	192.70274	663.85388	
411	4.100	-650.61292	1371.81531	256.35397	-826.49304	1515.11646	462.94171	-844.51221	1431.82629	314.73608	-627.31836	1431.48657	396.00958	-914.63995	1219.91443	296.65048	-608.56842	1276.76062	572.22144	-688.60284	1184.62073	354.90298	-853.03870	1300.77380	527.33826	-854.08606	964.58508	174.73003	-534.20203	1040.27686	659.65771	-661.16730	891.78949	56.38925	-410.80917	813.84827	587.51147	-766.23145	865.20789	257.52728	-562.11761	877.60278	465.43677	-859.68121	898.94379	568.99963	-746.36395	449.99185	273.50693	-484.52939	454.06036	463.95096	-802.58167	91.76946	334.41507	-652.90436	196.25258	652.69171	
412	4.110	-647.33313	1371.66174	250.90227	-823.65857	1515.69250	457.10291	-841.15100	1431.93030	308.81387	-627.43054	1429.88770	384.04675	-908.95355	1222.04675	288.81363	-606.43433	1277.26770	568.23969	-684.31049	1184.31812	351.00574	-849.87250	1300.92773	522.49310	-845.27228	969.40271	164.31483	-534.56097	1039.51099	657.46533	-651.43073	900.77832	42.58400	-407.92545	814.05249	588.44385	-755.42218	865.71130	256.73132	-559.43860	877.54767	461.19061	-857.74243	898.95337	564.29163	-748.01526	448.62222	269.67065	-477.96884	458.04068	454.12637	-802.16217	92.05804	333.01834	-642.88495	198.47252	643.83264	
413	4.120	-643.86884	1372.05676	245.67931	-819.97150	1516.25854	450.75049	-837.92163	1432.45251	303.11557	-620.68964	1432.29236	383.01755	-903.67822	1223.56531	282.43790	-604.62994	1277.76746	564.55658	-680.53772	1185.31384	346.72079	-847.22504	1301.41699	516.14594	-836.58630	974.62689	153.86090	-534.94757	1040.64343	653.95587	-642.34625	908.97925	29.30495	-405.66251	814.80823	590.52448	-750.76678	866.01892	252.60657	-557.54419	876.87445	457.63251	-855.72919	899.92365	559.21851	-748.50983	446.08960	267.02991	-472.16174	461.60678	447.52457	-801.99786	91.95398	332.86267	-632.26672	198.19089	631.75153	
